{"title":"Pain and Gain 2013 BRRip XviD Ac3 Feel-Free","uid":8805847,"size":1992737828,"categoryP":"video","categoryS":"movies","magnet":"?xt=urn:btih:a57fdbca5a7185781334c9aaca3f4dde18c46469&amp;dn=Pain+and+Gain+2013+BRRip+XviD+Ac3+Feel-Free&amp;tr=udp%3A%2F%2Ftracker.openbittorrent.com%3A80&amp;tr=udp%3A%2F%2Fopen.demonii.com%3A1337&amp;tr=udp%3A%2F%2Ftracker.coppersurfer.tk%3A6969&amp;tr=udp%3A%2F%2Fexodus.desync.com%3A6969","seeders":1,"leechers":0,"uploader":".BONE.","files":-1,"time":1376328441,"description":"Genre:Comedy | Crime | Drama\nLanguage:English &lt;a href=&quot;\nhttp://www.imdb.com/title/tt1980209/&quot; rel=&quot;nofollow&quot; target=&quot;_NEW&quot;&gt;\nhttp://www.imdb.com/title/tt1980209/&lt;/a&gt;\nSource:1080p BluRay DD5.1 x264-AMIABLE Thanks\nSample:Never\nEncoder:Tony\n\nFormat : AVI\nFormat/Info : Audio Video Interleave\nFile size : 1.85 GiB\nDuration : 2h 9mn\nOverall bit rate : 2 049 Kbps\n\nVideo\nID : 0\nFormat : MPEG-4 Visual\nFormat profile : Advanced Simple@L5\nFormat settings, BVOP : 1\nFormat settings, QPel : No\nFormat settings, GMC : No warppoints\nFormat settings, Matrix : Default (H.263)\nCodec ID : XVID\nCodec ID/Hint : XviD\nDuration : 2h 9mn\nBit rate : 1 655 Kbps\nWidth : 624 pixels\nHeight : 264 pixels\nDisplay aspect ratio : 2.35:1\nFrame rate : 23.976 fps\nColor space : YUV\nChroma subsampling : 4:2:0\nBit depth : 8 bits\nScan type : Progressive\nCompression mode : Lossy\nBits/(Pixel*Frame) : 0.419\nStream size : 1.50 GiB (81%)\nWriting library : XviD 1.2.1 (UTC 2008-12-04)\n\nAudio\nID : 1\nFormat : AC-3\nFormat/Info : Audio Coding 3\nMode extension : CM (complete main)\nCodec ID : 2000\nDuration : 2h 9mn\nBit rate mode : Constant\nBit rate : 384 Kbps\nChannel(s) : 6 channels\nChannel positions : Front: L C R, Side: L R, LFE\nSampling rate : 48.0 KHz\nBit depth : 16 bits\nCompression mode : Lossy\nStream size : 356 MiB (19%)\nAlignment : Aligned on interleaves\nInterleave, duration : 42 ms (1.00 video frame)\nInterleave, preload duration : 512 ms\n &lt;a href=&quot;\nhttp://img850.imageshack.us/img850/6861/76xp.png&quot; rel=&quot;nofollow&quot; target=&quot;_NEW&quot;&gt;\nhttp://img850.imageshack.us/img850/6861/76xp.png&lt;/a&gt; &lt;a href=&quot;\nhttp://img4.imageshack.us/img4/2166/x1db.png&quot; rel=&quot;nofollow&quot; target=&quot;_NEW&quot;&gt;\nhttp://img4.imageshack.us/img4/2166/x1db.png&lt;/a&gt; &lt;a href=&quot;\nhttp://img6.imageshack.us/img6/3316/17xw.png&quot; rel=&quot;nofollow&quot; target=&quot;_NEW&quot;&gt;\nhttp://img6.imageshack.us/img6/3316/17xw.png&lt;/a&gt; &lt;a href=&quot;\nhttp://img6.imageshack.us/img6/3316/17xw.png&quot; rel=&quot;nofollow&quot; target=&quot;_NEW&quot;&gt;\nhttp://img6.imageshack.us/img6/3316/17xw.png&lt;/a&gt; &lt;a href=&quot;\nhttp://img90.imageshack.us/img90/8206/m9xq.png&quot; rel=&quot;nofollow&quot; target=&quot;_NEW&quot;&gt;\nhttp://img90.imageshack.us/img90/8206/m9xq.png&lt;/a&gt;","torrent":{"xt":"urn:btih:a57fdbca5a7185781334c9aaca3f4dde18c46469","amp;dn":"Pain+and+Gain+2013+BRRip+XviD+Ac3+Feel-Free","amp;tr":["udp%3A%2F%2Ftracker.openbittorrent.com%3A80","udp%3A%2F%2Fopen.demonii.com%3A1337","udp%3A%2F%2Ftracker.coppersurfer.tk%3A6969","udp%3A%2F%2Fexodus.desync.com%3A6969"],"infoHash":"a57fdbca5a7185781334c9aaca3f4dde18c46469","infoHashBuffer":{"type":"Buffer","data":[165,127,219,202,90,113,133,120,19,52,201,170,202,63,77,222,24,196,100,105]},"announce":[],"urlList":[]}}